<?xml version="1.0" encoding="UTF-8" standalone="no"?>
<svg width="160px" height="160px" viewBox="0 0 160 160" version="1.1" xmlns="http://www.w3.org/2000/svg" xmlns:xlink="http://www.w3.org/1999/xlink" xmlns:sketch="http://www.bohemiancoding.com/sketch/ns">
    <!-- Generator: Sketch 3.4.3 (16618) - http://www.bohemiancoding.com/sketch -->
    <title>Step forward</title>
    <desc>Created with Sketch.</desc>
    <defs></defs>
    <g id="Page-1" stroke="none" stroke-width="1" fill="none" fill-rule="evenodd" sketch:type="MSPage">
        <g id="Step-Forward" sketch:type="MSLayerGroup" transform="translate(19.000000, 3.000000)" stroke="#4F4240" stroke-linecap="square" stroke-linejoin="round">
            <path d="M39.4558824,68 L81.5441176,68 L87,151 L34,151 L39.4558824,68 Z" id="Rectangle-140" stroke-width="4" fill="#EAE7C8" sketch:type="MSShapeGroup"></path>
            <path d="M46.4264706,49 L74.5735294,49 L82,68 L39,68 L46.4264706,49 Z" id="Rectangle-140-Copy" stroke-width="4" fill="#C6BDA7" sketch:type="MSShapeGroup"></path>
            <path d="M16,103 L102.371292,16.6287085" id="Line" stroke-width="2" sketch:type="MSShapeGroup"></path>
            <rect id="Rectangle-141" stroke-width="4" fill="#917E75" sketch:type="MSShapeGroup" x="26" y="140" width="69" height="11"></rect>
            <path d="M47,145 L75,145" id="Line" stroke-width="2" sketch:type="MSShapeGroup"></path>
            <rect id="Rectangle-142" stroke-width="2" fill="#67C39F" sketch:type="MSShapeGroup" x="50" y="117" width="22" height="22"></rect>
            <rect id="Rectangle-142-Copy" stroke-width="2" fill="#67C39F" sketch:type="MSShapeGroup" x="54" y="76" width="14" height="27"></rect>
            <path d="M51,104 L71,104" id="Line" stroke-width="4" sketch:type="MSShapeGroup"></path>
            <path d="M105,103 L18.6287085,16.6287079" id="Line" stroke-width="2" sketch:type="MSShapeGroup"></path>
            <rect id="Rectangle-145" stroke-width="2" fill="#F0C782" sketch:type="MSShapeGroup" transform="translate(32.920310, 21.920310) rotate(-45.000000) translate(-32.920310, -21.920310) " x="26.4203102" y="-2.57968978" width="13" height="49"></rect>
            <path d="M49,38 L15.984852,4.98485196" id="Line" stroke-width="2" sketch:type="MSShapeGroup"></path>
            <path d="M19,17 L26.6485291,9.35147074" id="Line" stroke-width="2" sketch:type="MSShapeGroup"></path>
            <path d="M37,34 L44.6485291,26.3514707" id="Line-Copy-60" stroke-width="2" sketch:type="MSShapeGroup"></path>
            <path d="M29,25 L36.6485291,17.3514707" id="Line-Copy-59" stroke-width="2" sketch:type="MSShapeGroup"></path>
            <rect id="Rectangle-145-Copy-2" stroke-width="2" fill="#F0C782" sketch:type="MSShapeGroup" transform="translate(97.920310, 29.920310) rotate(-135.000000) translate(-97.920310, -29.920310) " x="91.4203102" y="5.42031022" width="13" height="49"></rect>
            <rect id="Rectangle-145-Copy-3" stroke-width="2" fill="#F0C782" sketch:type="MSShapeGroup" transform="translate(21.920310, 87.920310) rotate(-135.000000) translate(-21.920310, -87.920310) " x="15.4203102" y="63.4203102" width="13" height="49"></rect>
            <rect id="Rectangle-145-Copy" stroke-width="2" fill="#F0C782" sketch:type="MSShapeGroup" transform="translate(89.920310, 96.920310) rotate(-45.000000) translate(-89.920310, -96.920310) " x="83.4203102" y="72.4203102" width="13" height="49"></rect>
            <path d="M77,93 L84.6485291,85.3514707" id="Line-Copy-61" stroke-width="2" sketch:type="MSShapeGroup"></path>
            <path d="M95,110 L102.648529,102.351471" id="Line-Copy-62" stroke-width="2" sketch:type="MSShapeGroup"></path>
            <path d="M87,101 L94.6485291,93.3514707" id="Line-Copy-63" stroke-width="2" sketch:type="MSShapeGroup"></path>
            <circle id="Oval-81" stroke-width="2" fill="#EC7878" sketch:type="MSShapeGroup" cx="60.5" cy="58.5" r="5.5"></circle>
            <path d="M85,36 L92.5166483,43.5166483" id="Line" stroke-width="2" sketch:type="MSShapeGroup"></path>
            <path d="M10,93 L17.5166483,100.516648" id="Line-Copy-66" stroke-width="2" sketch:type="MSShapeGroup"></path>
            <path d="M93,26 L101,34" id="Line-Copy-64" stroke-width="2" sketch:type="MSShapeGroup"></path>
            <path d="M18,83 L26,91" id="Line-Copy-67" stroke-width="2" sketch:type="MSShapeGroup"></path>
            <path d="M101,18 L109,26" id="Line-Copy-65" stroke-width="2" sketch:type="MSShapeGroup"></path>
            <path d="M26,75 L34,83" id="Line-Copy-68" stroke-width="2" sketch:type="MSShapeGroup"></path>
            <path d="M81,47 L115,13" id="Line" stroke-width="2" sketch:type="MSShapeGroup"></path>
            <path d="M107,114 L73.984852,80.984852" id="Line-Copy-70" stroke-width="2" sketch:type="MSShapeGroup"></path>
            <path d="M5,105 L39,71" id="Line-Copy-69" stroke-width="2" sketch:type="MSShapeGroup"></path>
            <path d="M8.5,12.5 C8.5,12.5 -0.5,21.5 1,35" id="Path-190" stroke-width="2" sketch:type="MSShapeGroup"></path>
            <path d="M11.7496001,17 C11.7496001,17 9.23054125,19.5 9.8991803,25" id="Path-190-Copy-2" stroke-width="2" sketch:type="MSShapeGroup"></path>
            <path d="M122.668639,83 C122.668639,83 113.668639,92 115.168639,105.5" id="Path-190-Copy" stroke-width="2" sketch:type="MSShapeGroup" transform="translate(118.834320, 94.250000) scale(-1, -1) translate(-118.834320, -94.250000) "></path>
        </g>
    </g>
</svg>